<svg xmlns="http://www.w3.org/2000/svg" viewBox="0 0 100 100">
  <defs>
    <radialGradient id="bg" cx="35%" cy="30%" r="75%">
      <stop offset="0%" stop-color="#fbbf24"/>
      <stop offset="55%" stop-color="#d97706"/>
      <stop offset="100%" stop-color="#78350f"/>
    </radialGradient>
    <linearGradient id="shine" x1="0" y1="0" x2="0" y2="1">
      <stop offset="0%" stop-color="rgba(255,255,255,0.5)"/>
      <stop offset="100%" stop-color="rgba(255,255,255,0)"/>
    </linearGradient>
  </defs>
  <rect width="100" height="100" rx="22" fill="url(#bg)"/>
  <rect width="100" height="50" rx="22" fill="url(#shine)"/>
  <!-- Letter B for bezoSMP -->
  <rect x="30" y="20" width="11" height="60" rx="4" fill="white"/>
  <rect x="30" y="20" width="30" height="11" rx="5" fill="white"/>
  <rect x="30" y="45" width="28" height="10" rx="5" fill="white"/>
  <rect x="30" y="69" width="32" height="11" rx="5" fill="white"/>
  <path d="M41 20 Q70 20 70 35 Q70 50 41 50" fill="none" stroke="white" stroke-width="11"/>
  <path d="M41 50 Q74 50 74 67 Q74 80 41 80" fill="none" stroke="white" stroke-width="11"/>
  <!-- Multiplayer dots -->
  <circle cx="72" cy="78" r="7" fill="white" opacity="0.9"/>
  <circle cx="82" cy="68" r="5" fill="white" opacity="0.7"/>
  <circle cx="85" cy="55" r="4" fill="white" opacity="0.5"/>
</svg>
