<svg xmlns="http://www.w3.org/2000/svg" viewBox="0 0 100 100">
  <!-- Red ladybug body — matches plushie photo: big red oval, black face bottom, cartoon googly eyes -->
  <!-- Red body -->
  <ellipse cx="50" cy="42" rx="38" ry="42" fill="#cc1010"/>
  <!-- Body radial shine -->
  <ellipse cx="50" cy="42" rx="38" ry="42" fill="rgba(255,255,255,0.12)"/>
  <!-- Black bottom face area -->
  <ellipse cx="50" cy="78" rx="34" ry="22" fill="#111"/>
  <!-- Black dots on red body -->
  <circle cx="33" cy="28" r="8" fill="#111"/>
  <circle cx="67" cy="28" r="8" fill="#111"/>
  <circle cx="27" cy="50" r="6" fill="#111"/>
  <circle cx="73" cy="50" r="6" fill="#111"/>
  <!-- Center seam line -->
  <line x1="50" y1="4" x2="50" y2="70" stroke="#111" strokeWidth="3.5"/>
  <!-- Antennae -->
  <line x1="42" y1="6" x2="26" y2="0" stroke="#111" strokeWidth="3" strokeLinecap="round"/>
  <circle cx="24" cy="0" r="4" fill="#111"/>
  <line x1="58" y1="6" x2="74" y2="0" stroke="#111" strokeWidth="3" strokeLinecap="round"/>
  <circle cx="76" cy="0" r="4" fill="#111"/>
  <!-- Googly eyes — big white ovals with black pupils, like the photo -->
  <ellipse cx="37" cy="77" rx="13" ry="15" fill="white"/>
  <circle cx="39" cy="79" r="6" fill="#111"/>
  <circle cx="42" cy="74" r="3.5" fill="white" opacity="0.8"/>
  <ellipse cx="63" cy="77" rx="13" ry="15" fill="white"/>
  <circle cx="61" cy="79" r="6" fill="#111"/>
  <circle cx="66" cy="74" r="3.5" fill="white" opacity="0.8"/>
  <!-- Top highlight on body -->
  <ellipse cx="43" cy="22" rx="17" ry="8" fill="rgba(255,255,255,0.38)" transform="rotate(-18 43 22)"/>
</svg>
