<svg xmlns="http://www.w3.org/2000/svg" viewBox="0 0 100 100">
  <!-- Background rounded square -->
  <rect width="100" height="100" rx="22" fill="#0078d4"/>
  <!-- Outer ring (globe shape) -->
  <path d="M50 10 C28 10 10 28 10 50 C10 72 28 90 50 90 C60 90 69 86 76 80 C68 83 59 84 51 82 C35 78 24 65 24 50 C24 37 31 26 42 21 C46 19 50 18 54 18 C66 18 76 25 81 36 L54 36 C48 36 44 40 44 46 L44 56 L82 56 C83 54 84 52 84 50 C84 28 69 10 50 10 Z" fill="white"/>
  <!-- Bottom green wave accent -->
  <path d="M44 56 C44 63 49 69 56 71 C63 73 70 70 74 64 C70 72 62 78 53 78 C40 78 30 68 30 55 C30 46 35 38 44 35 L44 56 Z" fill="#34d399"/>
  <!-- Subtle highlight -->
  <ellipse cx="42" cy="22" rx="18" ry="6" fill="rgba(255,255,255,0.3)" transform="rotate(-20 42 22)"/>
</svg>
